<svg width="147" height="58" viewBox="0 0 147 58" fill="none" xmlns="http://www.w3.org/2000/svg">
<path fill-rule="evenodd" clip-rule="evenodd" d="M106.817 5.87819e-05C105.235 5.87819e-05 103.788 0.49869 102.663 1.33494C101.751 0.899525 100.705 0.64913 99.5964 0.64913C96.018 0.64913 93.1212 3.22835 93.1212 6.40504C93.1212 7.02753 93.2328 7.6316 93.4388 8.19305C92.4293 9.20731 91.8139 10.5296 91.8139 11.9895C91.8139 12.4832 91.8898 12.9651 92.0216 13.4224C91.4414 13.5896 90.9044 13.8232 90.4089 14.1204C89.4426 14.5635 88.6087 15.1997 88.0021 15.9941C88.0009 15.9945 88.0033 16.0059 88.0021 16.0064C87.398 16.2333 86.829 16.4848 86.2916 16.7657C85.268 14.3902 83.3141 12.6668 80.9893 12.2589C79.7853 11.1699 78.2891 10.5199 76.6521 10.5199C75.1048 10.5199 73.6672 11.0921 72.4982 12.0752C71.4146 11.2955 70.1479 10.8383 68.7841 10.8383C65.0687 10.8383 62.0225 14.1824 61.6858 18.4435C61.0259 18.2068 60.3223 18.0761 59.5966 18.0761C57.4054 18.0761 55.4442 19.2383 54.1354 21.0642C53.7741 21.0463 53.4046 21.0275 53.0358 21.0275C51.8862 21.0275 50.7784 21.1175 49.7127 21.2847C48.4798 18.7759 46.1739 17.0841 43.5307 17.0841C40.5317 17.0841 37.9643 19.2588 36.9088 22.3379C35.7869 19.4369 33.3106 17.4148 30.4214 17.4148C28.2419 17.4148 26.2934 18.5692 24.9846 20.3784C24.1337 19.9574 23.2048 19.7171 22.2235 19.7171C19.2765 19.7171 16.7388 21.8172 15.6505 24.8117C14.5939 24.0852 13.3713 23.6605 12.0586 23.6605C9.41059 23.6605 7.09558 25.3571 5.86436 27.8734C5.35111 27.6093 4.77455 27.457 4.17836 27.457C1.86838 27.457 0 29.6544 0 32.3679C0 35.0814 1.86838 37.2788 4.17836 37.2788C4.87948 37.2788 5.55274 37.0858 6.13315 36.7277C6.15797 36.7709 6.19317 36.8075 6.21867 36.8501C6.76607 38.4268 7.99115 39.5905 9.4685 39.8506C10.2705 40.2172 11.1462 40.4262 12.0586 40.4262C13.3411 40.4262 14.5372 40.0198 15.5772 39.324C16.0809 41.3731 17.6901 42.8755 19.5967 42.8755C19.9027 42.8755 20.2014 42.8384 20.4886 42.7653C21.3936 43.2038 22.3988 43.4511 23.4574 43.4511C24.3536 43.4511 25.2075 43.2687 25.9987 42.949C26.7362 43.719 27.7065 44.1859 28.772 44.1859C30.0996 44.1859 31.2801 43.4575 32.0463 42.3244C33.7675 45.4286 38.3442 47.7082 43.8361 47.9578C44.5575 49.4345 45.9114 50.4316 47.4647 50.4316C48.8574 50.4316 50.0887 49.6284 50.8489 48.3987C51.2445 48.821 51.6883 49.2275 52.1928 49.5989C52.517 51.9334 54.2433 53.7137 56.3223 53.7137C57.4542 53.7137 58.477 53.1879 59.2301 52.3299L59.34 52.3421C59.9699 54.1188 61.4601 55.367 63.2007 55.367C63.7006 55.367 64.1858 55.262 64.6302 55.0731C67.1063 56.7745 70.6961 57.8408 74.6851 57.8408C79.9735 57.8408 84.5431 55.9637 86.7681 53.2239C87.0715 53.2109 87.3747 53.1877 87.6722 53.1626C88.5088 53.5223 89.4352 53.7382 90.4211 53.7382C93.1239 53.7382 95.436 52.224 96.4077 50.0765C96.5699 49.9506 96.7214 49.8285 96.8719 49.6968C97.2264 49.7517 97.5877 49.7948 97.9593 49.7948C98.5205 49.7948 99.0649 49.7213 99.5842 49.5989C100.306 51.0755 101.659 52.0727 103.213 52.0727C104.9 52.0727 106.351 50.8978 107.012 49.207C107.374 49.2626 107.744 49.2927 108.124 49.2927C109.36 49.2927 110.513 48.9809 111.496 48.4477C112.244 49.271 113.249 49.7703 114.355 49.7703C116.13 49.7703 117.645 48.4681 118.252 46.6352C118.427 46.6534 118.6 46.6719 118.778 46.6719C119.217 46.6719 119.646 46.6081 120.061 46.5004C120.757 47.1101 121.617 47.4679 122.553 47.4679C124.277 47.4679 125.761 46.242 126.401 44.492C127.383 45.0387 128.539 45.3493 129.773 45.3493C132.292 45.3493 134.468 44.0443 135.54 42.1284C136.289 42.4048 137.114 42.557 137.971 42.557C141.55 42.557 144.447 39.9094 144.447 36.6419C144.447 36.2549 144.402 35.8815 144.324 35.5152C144.823 34.6769 145.106 33.7196 145.106 32.6985C145.106 30.7913 144.112 29.1022 142.577 28.0203C142.726 27.5224 142.809 26.9938 142.809 26.4527C142.809 23.1853 139.9 20.5376 136.322 20.5376C136.005 20.5376 135.698 20.571 135.393 20.6111C135.518 20.1651 135.589 19.7076 135.589 19.2272C135.589 16.0505 132.692 13.4713 129.114 13.4713C129.01 13.4713 128.911 13.4793 128.808 13.4835C128.086 12.0123 126.73 11.022 125.18 11.022C124.574 11.022 124.001 11.1786 123.481 11.4506C121.878 8.69566 118.008 6.61486 113.268 6.06208C113.274 5.95589 113.292 5.85131 113.292 5.74367C113.292 2.56697 110.395 0 106.817 0V5.87819e-05ZM123.127 21.4316C123.369 21.9481 123.701 22.4247 124.092 22.8523C123.733 22.8045 123.362 22.7717 122.993 22.742C123.088 22.3488 123.127 21.9482 123.127 21.5296C123.127 21.4966 123.128 21.4645 123.127 21.4316ZM108.833 22.5951C109.313 22.6372 109.804 22.6585 110.299 22.6686C110.362 22.9434 110.463 23.2055 110.568 23.4646C110.009 23.1933 109.408 22.957 108.784 22.742C108.799 22.6931 108.819 22.6445 108.833 22.5951Z" fill="url(#paint0_linear)"/>
<path fill-rule="evenodd" clip-rule="evenodd" d="M106.982 0.0385824C105.4 0.0385824 103.953 0.537214 102.828 1.37346C101.916 0.938049 100.87 0.687653 99.7618 0.687653C99.2159 0.687653 98.692 0.758355 98.1858 0.871353C99.3292 1.74431 100.408 2.65695 101.399 3.5901C105.817 4.07835 109.243 7.61042 109.243 11.9056C109.243 12.8418 109.079 13.7468 108.778 14.5876C109.421 16.5511 109.768 18.5712 109.768 20.6374C109.768 20.6452 109.768 20.6537 109.768 20.6619C111.508 22.1918 112.59 24.3653 112.59 26.7852C112.59 31.3723 108.68 35.1071 103.83 35.1742C103.683 35.3449 103.531 35.5193 103.378 35.6885C103.757 36.5288 103.965 37.4348 103.965 38.3705C103.965 42.9994 98.9526 46.7472 92.7612 46.7472C92.2104 46.7472 91.6659 46.7189 91.1363 46.6615C90.1861 50.7144 84.5517 53.8257 77.746 53.8257C75.3704 53.8257 73.1379 53.451 71.1975 52.7848C69.9037 54.2761 68.0529 55.3659 65.9318 55.8097C68.3145 57.1051 71.4311 57.8794 74.8505 57.8794C80.1389 57.8794 84.7085 56.0022 86.9335 53.2624C87.2369 53.2495 87.5401 53.2264 87.8376 53.2012C88.6741 53.5608 89.6006 53.7768 90.5865 53.7768C93.2893 53.7768 95.6014 52.2625 96.5731 50.115C96.7353 49.9891 96.8868 49.867 97.0373 49.7354C97.3918 49.7902 97.7531 49.8333 98.1247 49.8333C98.6859 49.8333 99.2303 49.7599 99.7496 49.6374C100.471 51.1141 101.825 52.1112 103.378 52.1112C105.066 52.1112 106.517 50.9363 107.178 49.2455C107.54 49.3012 107.91 49.3313 108.29 49.3313C109.526 49.3313 110.679 49.0195 111.662 48.4862C112.409 49.3095 113.415 49.8089 114.52 49.8089C116.296 49.8089 117.811 48.5066 118.418 46.6737C118.592 46.6921 118.765 46.7104 118.943 46.7104C119.382 46.7104 119.811 46.6467 120.226 46.539C120.923 47.1486 121.783 47.5065 122.718 47.5065C124.443 47.5065 125.927 46.2805 126.567 44.5306C127.548 45.0773 128.705 45.3878 129.939 45.3878C132.457 45.3878 134.633 44.0829 135.705 42.167C136.455 42.4434 137.279 42.5956 138.137 42.5956C141.715 42.5956 144.612 39.948 144.612 36.6805C144.612 36.2934 144.567 35.9201 144.49 35.5538C144.988 34.7155 145.272 33.7581 145.272 32.7371C145.272 30.8299 144.277 29.1408 142.743 28.0589C142.892 27.561 142.975 27.0324 142.975 26.4913C142.975 23.2238 140.066 20.5761 136.487 20.5762C136.171 20.5762 135.863 20.6095 135.559 20.6496C135.684 20.2036 135.754 19.7461 135.754 19.2658C135.754 16.0891 132.857 13.5099 129.279 13.5099C129.176 13.5099 129.076 13.5179 128.974 13.5221C128.251 12.0508 126.895 11.0605 125.345 11.0605C124.74 11.0605 124.166 11.2172 123.647 11.4892C122.043 8.73422 118.174 6.65342 113.433 6.10064C113.44 5.99446 113.458 5.88987 113.458 5.78223C113.458 2.60553 110.561 0.0385628 106.982 0.0385628V0.0385824ZM123.293 21.4702C123.534 21.9866 123.866 22.4633 124.258 22.8908C123.898 22.843 123.528 22.8102 123.158 22.7806C123.254 22.3873 123.293 21.9868 123.293 21.5681C123.293 21.5352 123.293 21.5031 123.293 21.4702Z" fill="url(#paint1_linear)"/>
<path fill-rule="evenodd" clip-rule="evenodd" d="M63.1071 44.8365C63.6744 44.8365 64.2039 45.0017 64.653 45.2805H64.6921C66.2655 45.2805 67.5533 46.5176 67.632 48.0751C67.6348 48.1253 67.632 48.1766 67.632 48.2274C67.632 48.6542 67.5383 49.0584 67.3758 49.4245C67.6892 49.8932 67.8709 50.4541 67.8709 51.0612C67.8709 51.1121 67.8736 51.1633 67.8709 51.2135C67.7921 52.771 66.5044 54.0081 64.931 54.0081C64.7755 54.0081 64.624 53.9964 64.475 53.9733C64.0136 54.2751 63.4606 54.4521 62.8683 54.4521C62.2946 54.4521 61.7575 54.2884 61.305 54.0037C61.2474 54.0073 61.1897 54.0081 61.1313 54.0081C59.5071 54.0081 58.187 52.6892 58.187 51.0612C58.187 50.6323 58.2827 50.2265 58.4476 49.8598C58.1333 49.3922 57.9482 48.834 57.9482 48.2274C57.9482 46.5994 59.2683 45.2805 60.8924 45.2805C61.0907 45.2805 61.2831 45.2999 61.47 45.3371C61.9385 45.0211 62.4999 44.8365 63.1071 44.8365L63.1071 44.8365Z" fill="#734B02" stroke="black" stroke-width="1.06631"/>
<path fill-rule="evenodd" clip-rule="evenodd" d="M63.8498 45.7775C64.4171 45.7775 64.9466 45.9427 65.3957 46.2215H65.4348C67.0082 46.2215 68.296 47.4585 68.3747 49.0161C68.3775 49.0663 68.3747 49.1175 68.3747 49.1684C68.3747 49.5952 68.281 49.9994 68.1185 50.3655C68.4319 50.8341 68.6136 51.3951 68.6136 52.0022C68.6136 52.053 68.6163 52.1043 68.6136 52.1545C68.5348 53.712 67.2471 54.9491 65.6737 54.9491C65.5182 54.9491 65.3667 54.9374 65.2177 54.9142C64.7563 55.2161 64.2033 55.3931 63.611 55.3931C63.0373 55.3931 62.5002 55.2294 62.0477 54.9447C61.9901 54.9482 61.9324 54.9491 61.874 54.9491C60.2498 54.9491 58.9297 53.6302 58.9297 52.0021C58.9297 51.5733 59.0254 51.1675 59.1903 50.8007C58.8761 50.3332 58.6909 49.7749 58.6909 49.1684C58.6909 47.5404 60.011 46.2215 61.6351 46.2215C61.8334 46.2215 62.0258 46.2408 62.2127 46.2781C62.6813 45.9621 63.2426 45.7775 63.8498 45.7775L63.8498 45.7775Z" fill="#3B2906"/>
<path fill-rule="evenodd" clip-rule="evenodd" d="M95.5958 44.6238C96.1632 44.6238 96.6926 44.7889 97.1418 45.0678H97.1809C98.7543 45.0678 100.042 46.3048 100.121 47.8623C100.124 47.9126 100.121 47.9638 100.121 48.0147C100.121 48.4414 100.027 48.8457 99.8646 49.2117C100.178 49.6804 100.36 50.2414 100.36 50.8484C100.36 50.8993 100.362 50.9505 100.36 51.0008C100.281 52.5583 98.9931 53.7953 97.4197 53.7953C97.2642 53.7953 97.1127 53.7836 96.9637 53.7605C96.5023 54.0623 95.9493 54.2393 95.357 54.2393C94.7833 54.2393 94.2463 54.0757 93.7937 53.791C93.7361 53.7945 93.6784 53.7953 93.62 53.7953C91.9959 53.7953 90.6758 52.4764 90.6758 50.8484C90.6758 50.4196 90.7714 50.0138 90.9363 49.647C90.6221 49.1795 90.4369 48.6212 90.4369 48.0147C90.4369 46.3866 91.757 45.0677 93.3812 45.0677C93.5794 45.0677 93.7718 45.0871 93.9587 45.1243C94.4273 44.8083 94.9887 44.6237 95.5958 44.6237L95.5958 44.6238Z" fill="#734B02" stroke="black" stroke-width="1.06631"/>
<path fill-rule="evenodd" clip-rule="evenodd" d="M96.3385 45.5647C96.9059 45.5647 97.4353 45.7299 97.8845 46.0087H97.9236C99.497 46.0087 100.785 47.2458 100.863 48.8033C100.866 48.8536 100.863 48.9048 100.863 48.9557C100.863 49.3824 100.77 49.7867 100.607 50.1527C100.921 50.6214 101.102 51.1824 101.102 51.7894C101.102 51.8403 101.105 51.8915 101.102 51.9418C101.024 53.4993 99.7358 54.7363 98.1624 54.7363C98.007 54.7363 97.8554 54.7246 97.7064 54.7015C97.245 55.0033 96.692 55.1803 96.0997 55.1803C95.526 55.1803 94.989 55.0167 94.5364 54.7319C94.4788 54.7355 94.4212 54.7363 94.3627 54.7363C92.7386 54.7363 91.4185 53.4174 91.4185 51.7894C91.4185 51.3606 91.5141 50.9547 91.679 50.588C91.3648 50.1205 91.1796 49.5622 91.1796 48.9556C91.1796 47.3276 92.4997 46.0087 94.1239 46.0087C94.3221 46.0087 94.5145 46.0281 94.7014 46.0653C95.17 45.7493 95.7314 45.5647 96.3386 45.5647L96.3385 45.5647Z" fill="#3B2906"/>
<path fill-rule="evenodd" clip-rule="evenodd" d="M138.184 26.3676C139.06 26.3676 139.876 26.6224 140.569 27.0525H140.63C143.057 27.0525 145.044 28.9609 145.165 31.3638C145.169 31.4413 145.165 31.5203 145.165 31.5988C145.165 32.2572 145.021 32.8808 144.77 33.4455C145.253 34.1686 145.534 35.034 145.534 35.9705C145.534 36.049 145.538 36.128 145.534 36.2055C145.412 38.6084 143.425 40.5168 140.998 40.5168C140.758 40.5168 140.525 40.4988 140.295 40.4631C139.583 40.9287 138.73 41.2017 137.816 41.2017C136.931 41.2017 136.102 40.9493 135.404 40.5101C135.315 40.5155 135.226 40.5168 135.136 40.5168C132.631 40.5168 130.594 38.4821 130.594 35.9705C130.594 35.3089 130.742 34.6829 130.996 34.117C130.511 33.3958 130.226 32.5345 130.226 31.5988C130.226 29.0872 132.262 27.0525 134.768 27.0525C135.074 27.0525 135.37 27.0824 135.659 27.1398C136.382 26.6523 137.248 26.3675 138.184 26.3675L138.184 26.3676Z" fill="#734B02" stroke="black" stroke-width="1.64503"/>
<path fill-rule="evenodd" clip-rule="evenodd" d="M139.33 27.8193C140.205 27.8193 141.022 28.0741 141.715 28.5042H141.775C144.203 28.5042 146.189 30.4126 146.311 32.8155C146.315 32.893 146.311 32.972 146.311 33.0505C146.311 33.7089 146.166 34.3325 145.916 34.8972C146.399 35.6203 146.679 36.4857 146.679 37.4222C146.679 37.5007 146.684 37.5797 146.679 37.6572C146.558 40.0601 144.571 41.9685 142.144 41.9685C141.904 41.9685 141.67 41.9504 141.44 41.9147C140.729 42.3804 139.876 42.6534 138.962 42.6534C138.077 42.6534 137.248 42.401 136.55 41.9617C136.461 41.9672 136.372 41.9685 136.282 41.9685C133.776 41.9685 131.74 39.9338 131.74 37.4222C131.74 36.7606 131.887 36.1346 132.142 35.5687C131.657 34.8475 131.371 33.9862 131.371 33.0505C131.371 30.5389 133.408 28.5042 135.914 28.5042C136.219 28.5042 136.516 28.534 136.805 28.5915C137.527 28.104 138.394 27.8192 139.33 27.8192L139.33 27.8193Z" fill="#3B2906"/>
<path fill-rule="evenodd" clip-rule="evenodd" d="M118.542 18.344C119.144 18.344 119.705 18.5191 120.181 18.8148H120.223C121.891 18.8148 123.257 20.1265 123.34 21.7781C123.343 21.8313 123.34 21.8857 123.34 21.9396C123.34 22.3921 123.241 22.8208 123.068 23.2089C123.401 23.7059 123.593 24.3008 123.593 24.9445C123.593 24.9984 123.596 25.0527 123.593 25.106C123.51 26.7576 122.144 28.0693 120.476 28.0693C120.311 28.0693 120.15 28.0569 119.993 28.0324C119.503 28.3524 118.917 28.5401 118.289 28.5401C117.68 28.5401 117.111 28.3666 116.631 28.0647C116.57 28.0686 116.509 28.0693 116.447 28.0693C114.725 28.0693 113.325 26.6708 113.325 24.9444C113.325 24.4897 113.426 24.0594 113.601 23.6705C113.268 23.1747 113.072 22.5828 113.072 21.9396C113.072 20.2133 114.471 18.8147 116.194 18.8147C116.404 18.8147 116.608 18.8353 116.806 18.8747C117.303 18.5397 117.898 18.3439 118.542 18.3439L118.542 18.344Z" fill="#734B02" stroke="black" stroke-width="1.1307"/>
<path opacity="0.8025" fill-rule="evenodd" clip-rule="evenodd" d="M119.985 19.9991C120.587 19.9991 121.148 20.1743 121.625 20.4699H121.666C123.334 20.4699 124.7 21.7817 124.783 23.4332C124.786 23.4865 124.783 23.5408 124.783 23.5948C124.783 24.0473 124.684 24.476 124.512 24.8641C124.844 25.3611 125.037 25.9559 125.037 26.5996C125.037 26.6536 125.039 26.7079 125.037 26.7612C124.953 28.4128 123.588 29.7245 121.919 29.7245C121.754 29.7245 121.594 29.7121 121.436 29.6875C120.947 30.0076 120.36 30.1953 119.732 30.1953C119.124 30.1953 118.554 30.0217 118.074 29.7198C118.013 29.7238 117.952 29.7245 117.89 29.7245C116.168 29.7245 114.768 28.3259 114.768 26.5996C114.768 26.1449 114.87 25.7146 115.044 25.3257C114.711 24.8299 114.515 24.2379 114.515 23.5948C114.515 21.8685 115.915 20.4699 117.637 20.4699C117.847 20.4699 118.051 20.4905 118.249 20.5299C118.746 20.1948 119.342 19.9991 119.985 19.9991L119.985 19.9991Z" fill="#3B2906"/>
<path fill-rule="evenodd" clip-rule="evenodd" d="M12.3099 31.4765C12.8773 31.4765 13.4067 31.6417 13.8559 31.9205H13.895C15.4684 31.9205 16.7561 33.1576 16.8349 34.7151C16.8376 34.7653 16.8349 34.8166 16.8349 34.8674C16.8349 35.2942 16.7412 35.6985 16.5787 36.0645C16.892 36.5332 17.0737 37.0941 17.0737 37.7012C17.0737 37.7521 17.0764 37.8033 17.0737 37.8535C16.9949 39.4111 15.7072 40.6481 14.1338 40.6481C13.9784 40.6481 13.8268 40.6364 13.6778 40.6133C13.2164 40.9151 12.6634 41.0921 12.0711 41.0921C11.4974 41.0921 10.9604 40.9284 10.5078 40.6437C10.4502 40.6473 10.3925 40.6481 10.3341 40.6481C8.70996 40.6481 7.38987 39.3292 7.38987 37.7012C7.38987 37.2723 7.48553 36.8665 7.65042 36.4998C7.3362 36.0322 7.15103 35.474 7.15103 34.8674C7.15103 33.2394 8.47113 31.9205 10.0953 31.9205C10.2935 31.9205 10.4859 31.9399 10.6728 31.9771C11.1414 31.6611 11.7028 31.4765 12.3099 31.4765L12.3099 31.4765Z" fill="#734B02" stroke="black" stroke-width="1.06631"/>
<path fill-rule="evenodd" clip-rule="evenodd" d="M13.0526 32.4175C13.62 32.4175 14.1494 32.5827 14.5986 32.8615H14.6377C16.2111 32.8615 17.4988 34.0985 17.5776 35.6561C17.5803 35.7063 17.5776 35.7576 17.5776 35.8084C17.5776 36.2352 17.4839 36.6394 17.3214 37.0055C17.6347 37.4741 17.8164 38.0351 17.8164 38.6422C17.8164 38.693 17.8191 38.7443 17.8164 38.7945C17.7376 40.352 16.4499 41.5891 14.8765 41.5891C14.7211 41.5891 14.5695 41.5774 14.4206 41.5542C13.9591 41.8561 13.4061 42.0331 12.8138 42.0331C12.2401 42.0331 11.7031 41.8694 11.2505 41.5847C11.1929 41.5882 11.1353 41.5891 11.0768 41.5891C9.45267 41.5891 8.13258 40.2702 8.13258 38.6421C8.13258 38.2133 8.22824 37.8075 8.39313 37.4407C8.0789 36.9732 7.89374 36.4149 7.89374 35.8084C7.89374 34.1804 9.21383 32.8615 10.838 32.8615C11.0362 32.8615 11.2287 32.8808 11.4155 32.9181C11.8841 32.6021 12.4455 32.4175 13.0527 32.4175L13.0526 32.4175Z" fill="#3B2906"/>
<path fill-rule="evenodd" clip-rule="evenodd" d="M42.4765 33.4486C43.0438 33.4486 43.5733 33.6138 44.0224 33.8926H44.0615C45.6349 33.8926 46.9226 35.1296 47.0014 36.6872C47.0041 36.7374 47.0014 36.7886 47.0014 36.8395C47.0014 37.2663 46.9077 37.6705 46.7452 38.0366C47.0586 38.5052 47.2402 39.0662 47.2402 39.6733C47.2402 39.7241 47.243 39.7754 47.2402 39.8256C47.1615 41.3831 45.8737 42.6202 44.3003 42.6202C44.1449 42.6202 43.9934 42.6085 43.8444 42.5853C43.383 42.8872 42.8299 43.0642 42.2376 43.0642C41.664 43.0642 41.1269 42.9005 40.6743 42.6158C40.6168 42.6193 40.5591 42.6202 40.5006 42.6202C38.8765 42.6202 37.5564 41.3013 37.5564 39.6732C37.5564 39.2444 37.6521 38.8386 37.817 38.4718C37.5027 38.0043 37.3176 37.446 37.3176 36.8395C37.3176 35.2115 38.6377 33.8926 40.2618 33.8926C40.4601 33.8926 40.6525 33.9119 40.8394 33.9492C41.3079 33.6332 41.8693 33.4486 42.4765 33.4486L42.4765 33.4486Z" fill="#734B02" stroke="black" stroke-width="1.06631"/>
<path fill-rule="evenodd" clip-rule="evenodd" d="M43.2192 34.3896C43.7865 34.3896 44.316 34.5548 44.7651 34.8336H44.8042C46.3776 34.8336 47.6653 36.0706 47.7441 37.6282C47.7468 37.6784 47.7441 37.7296 47.7441 37.7805C47.7441 38.2073 47.6504 38.6115 47.4879 38.9776C47.8013 39.4462 47.9829 40.0072 47.9829 40.6142C47.9829 40.6651 47.9857 40.7164 47.9829 40.7666C47.9042 42.3241 46.6164 43.5612 45.0431 43.5612C44.8876 43.5612 44.7361 43.5494 44.5871 43.5263C44.1257 43.8282 43.5727 44.0051 42.9804 44.0051C42.4067 44.0051 41.8696 43.8415 41.417 43.5568C41.3595 43.5603 41.3018 43.5611 41.2433 43.5611C39.6192 43.5611 38.2991 42.2423 38.2991 40.6142C38.2991 40.1854 38.3948 39.7796 38.5597 39.4128C38.2454 38.9453 38.0603 38.387 38.0603 37.7805C38.0603 36.1525 39.3804 34.8336 41.0045 34.8336C41.2028 34.8336 41.3952 34.8529 41.5821 34.8902C42.0506 34.5742 42.612 34.3896 43.2192 34.3896L43.2192 34.3896Z" fill="#3B2906" fill-opacity="0.507"/>
<path fill-rule="evenodd" clip-rule="evenodd" d="M106.746 29.7903C107.318 29.7903 107.852 29.8939 108.305 30.0687H108.344C109.93 30.0687 111.229 30.8446 111.308 31.8214C111.311 31.8529 111.308 31.8851 111.308 31.917C111.308 32.1846 111.213 32.4382 111.05 32.6677C111.366 32.9617 111.549 33.3135 111.549 33.6942C111.549 33.7261 111.551 33.7583 111.549 33.7898C111.469 34.7666 110.171 35.5425 108.585 35.5425C108.428 35.5425 108.275 35.5352 108.125 35.5207C107.66 35.71 107.102 35.821 106.505 35.821C105.927 35.821 105.386 35.7183 104.929 35.5398C104.871 35.5421 104.813 35.5425 104.754 35.5425C103.117 35.5425 101.786 34.7153 101.786 33.6943C101.786 33.4253 101.882 33.1708 102.049 32.9408C101.732 32.6475 101.545 32.2974 101.545 31.917C101.545 30.8959 102.876 30.0688 104.513 30.0688C104.713 30.0688 104.907 30.0809 105.096 30.1043C105.568 29.9061 106.134 29.7903 106.746 29.7903L106.746 29.7903Z" fill="#734B02" stroke="black" stroke-width="0.8479"/>
<path fill-rule="evenodd" clip-rule="evenodd" d="M107.495 30.3804C108.067 30.3804 108.601 30.484 109.053 30.6589H109.093C110.679 30.6589 111.977 31.4347 112.057 32.4116C112.059 32.4431 112.057 32.4752 112.057 32.5071C112.057 32.7748 111.962 33.0283 111.798 33.2579C112.114 33.5519 112.297 33.9037 112.297 34.2844C112.297 34.3163 112.3 34.3485 112.297 34.38C112.218 35.3568 110.92 36.1327 109.334 36.1327C109.177 36.1327 109.024 36.1253 108.874 36.1108C108.409 36.3001 107.851 36.4111 107.254 36.4111C106.676 36.4111 106.134 36.3085 105.678 36.1299C105.62 36.1323 105.562 36.1326 105.503 36.1326C103.865 36.1326 102.535 35.3055 102.535 34.2844C102.535 34.0155 102.631 33.7609 102.797 33.5309C102.481 33.2377 102.294 32.8875 102.294 32.5071C102.294 31.4861 103.625 30.6589 105.262 30.6589C105.462 30.6589 105.656 30.671 105.844 30.6944C106.317 30.4962 106.883 30.3804 107.495 30.3804L107.495 30.3804Z" fill="#3B2906" fill-opacity="0.507"/>
<path fill-rule="evenodd" clip-rule="evenodd" d="M31.9605 17.9743C32.5325 17.9743 33.0662 18.0779 33.519 18.2528H33.5585C35.1447 18.2528 36.4429 19.0286 36.5223 20.0055C36.5251 20.037 36.5223 20.0691 36.5223 20.101C36.5223 20.3687 36.4279 20.6222 36.264 20.8518C36.58 21.1457 36.7631 21.4976 36.7631 21.8783C36.7631 21.9102 36.7659 21.9423 36.7631 21.9738C36.6837 22.9507 35.3855 23.7265 33.7993 23.7265C33.6425 23.7265 33.4898 23.7192 33.3396 23.7047C32.8744 23.894 32.3169 24.005 31.7197 24.005C31.1414 24.005 30.5999 23.9024 30.1437 23.7238C30.0856 23.7262 30.0275 23.7266 29.9685 23.7266C28.3311 23.7266 27.0003 22.8994 27.0003 21.8783C27.0003 21.6094 27.0967 21.3548 27.263 21.1248C26.9462 20.8316 26.7595 20.4814 26.7595 20.101C26.7595 19.08 28.0904 18.2528 29.7277 18.2528C29.9276 18.2528 30.1216 18.2649 30.31 18.2883C30.7824 18.0901 31.3484 17.9743 31.9605 17.9743L31.9605 17.9743Z" fill="#734B02" stroke="black" stroke-width="0.8479"/>
<path fill-rule="evenodd" clip-rule="evenodd" d="M32.7092 18.5645C33.2812 18.5645 33.815 18.6681 34.2678 18.8429H34.3072C35.8934 18.8429 37.1917 19.6188 37.2711 20.5956C37.2738 20.6271 37.2711 20.6593 37.2711 20.6912C37.2711 20.9588 37.1766 21.2124 37.0128 21.4419C37.3287 21.7359 37.5119 22.0877 37.5119 22.4685C37.5119 22.5004 37.5146 22.5325 37.5119 22.564C37.4325 23.5409 36.1342 24.3167 34.548 24.3167C34.3913 24.3167 34.2385 24.3094 34.0883 24.2948C33.6231 24.4841 33.0656 24.5951 32.4685 24.5951C31.8901 24.5951 31.3487 24.4925 30.8924 24.3139C30.8344 24.3163 30.7762 24.3167 30.7173 24.3167C29.0799 24.3167 27.749 23.4895 27.749 22.4684C27.749 22.1995 27.8455 21.945 28.0117 21.7149C27.6949 21.4217 27.5082 21.0716 27.5082 20.6912C27.5082 19.6701 28.8391 18.8429 30.4765 18.8429C30.6764 18.8429 30.8704 18.8551 31.0588 18.8784C31.5312 18.6802 32.0971 18.5645 32.7093 18.5645L32.7092 18.5645Z" fill="#3B2906" fill-opacity="0.507"/>
<path fill-rule="evenodd" clip-rule="evenodd" d="M80.7643 24.4476C81.6456 24.4476 82.468 24.6072 83.1657 24.8767H83.2264C85.6704 24.8767 87.6706 26.072 87.793 27.5771C87.7972 27.6257 87.793 27.6752 87.793 27.7243C87.793 28.1367 87.6474 28.5274 87.395 28.8811C87.8818 29.334 88.164 29.876 88.164 30.4626C88.164 30.5118 88.1682 30.5613 88.164 30.6099C88.0416 32.1149 86.0414 33.3103 83.5974 33.3103C83.3559 33.3103 83.1206 33.299 82.8891 33.2767C82.1724 33.5684 81.3134 33.7394 80.3934 33.7394C79.5023 33.7394 78.668 33.5812 77.9651 33.3061C77.8757 33.3097 77.786 33.3104 77.6952 33.3104C75.1724 33.3104 73.1219 32.0359 73.1219 30.4627C73.1219 30.0483 73.2705 29.6562 73.5267 29.3017C73.0386 28.85 72.7509 28.3105 72.7509 27.7244C72.7509 26.1512 74.8015 24.8767 77.3243 24.8767C77.6322 24.8767 77.9311 24.8954 78.2214 24.9314C78.9492 24.6261 79.8212 24.4477 80.7644 24.4477L80.7643 24.4476Z" fill="#734B02" stroke="black" stroke-width="1.3064"/>
<path fill-rule="evenodd" clip-rule="evenodd" d="M81.918 25.3569C82.7992 25.3569 83.6217 25.5165 84.3193 25.786H84.38C86.824 25.786 88.8243 26.9813 88.9466 28.4864C88.9508 28.535 88.9466 28.5845 88.9466 28.6336C88.9466 29.046 88.8011 29.4367 88.5486 29.7904C89.0354 30.2433 89.3176 30.7853 89.3176 31.3719C89.3176 31.4211 89.3218 31.4706 89.3176 31.5192C89.1953 33.0242 87.195 34.2196 84.751 34.2196C84.5096 34.2196 84.2742 34.2083 84.0428 34.1859C83.3261 34.4776 82.467 34.6486 81.547 34.6486C80.6559 34.6486 79.8217 34.4905 79.1187 34.2153C79.0293 34.2189 78.9397 34.2196 78.8489 34.2196C76.3261 34.2196 74.2756 32.9451 74.2756 31.3719C74.2756 30.9575 74.4242 30.5654 74.6803 30.211C74.1922 29.7592 73.9046 29.2197 73.9046 28.6336C73.9046 27.0604 75.9551 25.7859 78.4779 25.7859C78.7859 25.7859 79.0847 25.8047 79.375 25.8406C80.1029 25.5353 80.9749 25.3569 81.918 25.3569H81.918Z" fill="#3B2906" fill-opacity="0.507"/>
<defs>
<linearGradient id="paint0_linear" x1="-0.00101258" y1="-55.6995" x2="145.105" y2="-55.6995" gradientUnits="userSpaceOnUse">
<stop stop-color="#593D09"/>
<stop offset="1" stop-color="#7F5200"/>
</linearGradient>
<linearGradient id="paint1_linear" x1="65.9318" y1="-55.6995" x2="145.272" y2="-55.6995" gradientUnits="userSpaceOnUse">
<stop stop-color="#563B09"/>
<stop offset="1" stop-color="#291D04"/>
</linearGradient>
</defs>
</svg>
