<svg width="98" height="137" viewBox="0 0 98 137" fill="none" xmlns="http://www.w3.org/2000/svg">
<path fill-rule="evenodd" clip-rule="evenodd" d="M48.5491 3.0001C48.4312 3.0001 48.2721 3.01857 48.1442 3.0206V3.04111C41.0911 3.12446 23.9447 4.63873 17.6374 20.2302C14.4938 15.9913 17.6348 20.2315 7.49548 10.4753C7.49548 10.4753 -5.22586 23.1204 12.1312 32.1004C18.1601 88.8461 5.8775 110.652 41.5651 109.872C43.5983 109.828 45.8304 109.858 48.1442 109.913H48.2049L49.2576 109.934V109.893C51.5735 109.837 53.8019 109.807 55.8367 109.852C91.5243 110.631 79.2417 88.8255 85.2706 32.0798C102.628 23.0998 89.9064 10.4548 89.9064 10.4548C79.7672 20.2111 82.908 15.9707 79.7644 20.2096C73.2442 4.09182 55.109 3 48.5491 3L48.5491 3.0001Z" fill="#333333" stroke="black" stroke-width="5.81003"/>
<path fill-rule="evenodd" clip-rule="evenodd" d="M83.1134 97.5387C83.1134 118.344 68.0687 135.211 49.5102 135.211C30.9517 135.211 15.9071 118.344 15.9071 97.5387C15.9071 76.733 30.9517 59.8666 49.5102 59.8666C68.0687 59.8666 83.1134 76.733 83.1134 97.5387Z" fill="#93939F" stroke="black" stroke-width="2.70513"/>
<path fill-rule="evenodd" clip-rule="evenodd" d="M49.0084 60.3039C67.0573 60.955 81.5193 77.5547 81.5193 97.9475C81.5193 117.194 68.6453 133.053 52.0246 135.324C63.6214 132.039 72.3895 116.676 72.3895 98.2145C72.3895 78.1793 62.0679 61.7884 49.0084 60.5298V60.3039Z" fill="#7F7F8D"/>
<path fill-rule="evenodd" clip-rule="evenodd" d="M48.9211 59.7464C30.8722 60.3975 16.4102 76.9972 16.4102 97.39C16.4102 116.637 29.2841 132.495 45.9048 134.767C34.308 131.482 25.5399 116.118 25.5399 97.657C25.5399 77.6218 35.8615 61.2309 48.9211 59.9724V59.7464Z" fill="#C1C1C8"/>
<path fill-rule="evenodd" clip-rule="evenodd" d="M36.3699 16.9615C28.0392 16.9615 21.2739 24.8964 21.2739 34.6751C21.2739 44.4538 28.0392 52.3878 36.3699 52.3878C41.2656 52.3878 45.6093 49.6449 48.3672 45.4003C51.1241 49.6477 55.4781 52.3878 60.3766 52.3878C68.7044 52.3878 75.4707 44.4519 75.4707 34.6751C75.4707 24.8983 68.7044 16.9615 60.3766 16.9615C55.479 16.9615 51.1241 19.7034 48.3672 23.9499C45.6093 19.7063 41.2646 16.9615 36.3699 16.9615Z" fill="white" stroke="black" stroke-width="5.48447"/>
<path opacity="0.3374" fill-rule="evenodd" clip-rule="evenodd" d="M67.8855 18.6736C68.0698 19.7977 68.1573 20.9652 68.1573 22.1521C68.1573 32.2498 61.1822 40.4356 52.5811 40.4356C47.5218 40.4356 43.0093 37.6109 40.1618 33.224C37.3134 37.6079 32.8408 40.4356 27.7845 40.4356C25.2761 40.4356 22.9017 39.7427 20.8013 38.5055C22.1868 46.9429 28.5143 53.3316 36.1057 53.3316C41.1621 53.3316 45.6556 50.4827 48.504 46.0988C51.3515 50.4857 55.8431 53.3316 60.9023 53.3316C69.5035 53.3316 76.4995 45.1246 76.4995 35.0269C76.4995 27.8717 72.9893 21.6801 67.8855 18.6736Z" fill="#A5A5A5"/>
<path fill-rule="evenodd" clip-rule="evenodd" d="M47.4129 35.8737C47.4129 38.3219 45.4554 40.3068 43.0421 40.3068C40.6289 40.3068 38.6723 38.3219 38.6723 35.8737C38.6723 33.4245 40.6298 31.4396 43.0421 31.4396C45.4563 31.4406 47.4129 33.4245 47.4129 35.8737Z" fill="black" stroke="black" stroke-width="3.47634"/>
<path fill-rule="evenodd" clip-rule="evenodd" d="M42.5994 34.3208C42.5994 34.9556 42.0914 35.4701 41.4657 35.4701C40.8399 35.4701 40.3328 34.9556 40.3328 34.3208C40.3328 33.686 40.8399 33.1706 41.4657 33.1706C42.0914 33.1706 42.5994 33.686 42.5994 34.3208Z" fill="white"/>
<path fill-rule="evenodd" clip-rule="evenodd" d="M58.481 35.8737C58.481 38.3219 56.5244 40.3068 54.1111 40.3068C51.6969 40.3068 49.7403 38.3219 49.7403 35.8737C49.7403 33.4245 51.6969 31.4396 54.1111 31.4396C56.5253 31.4396 58.481 33.4245 58.481 35.8737Z" fill="black" stroke="black" stroke-width="3.47634"/>
<path fill-rule="evenodd" clip-rule="evenodd" d="M53.6665 34.3208C53.6665 34.9556 53.1594 35.4701 52.5337 35.4701C51.9079 35.4701 51.4008 34.9556 51.4008 34.3208C51.4008 33.686 51.9079 33.1706 52.5337 33.1706C53.1594 33.1706 53.6665 33.686 53.6665 34.3208Z" fill="white"/>
<path fill-rule="evenodd" clip-rule="evenodd" d="M6.35106 15.0757C6.35106 15.0757 -0.229077 22.8129 11.2092 30.1489C13.0456 28.344 13.3081 28.0248 15.4682 26.2871V24.8906C12.8514 23.4427 14.0593 21.549 9.79174 16.1669L6.35106 15.0757Z" fill="url(#paint0_linear)" stroke="black" stroke-width="1.34331"/>
<path fill-rule="evenodd" clip-rule="evenodd" d="M91.707 15.4199C91.707 15.4199 98.2871 23.157 86.8488 30.493C85.0124 28.6881 84.7499 28.3689 82.5898 26.6312V25.2348C85.2066 23.7868 83.9987 21.8931 88.2663 16.511L91.707 15.4199Z" fill="url(#paint1_linear)" stroke="black" stroke-width="1.34331"/>
<path fill-rule="evenodd" clip-rule="evenodd" d="M44.6619 61.4063C62.7108 62.0573 77.1728 78.6571 77.1728 99.0498C77.1728 118.297 64.2989 134.155 47.6782 136.426C59.275 133.142 68.0431 117.778 68.0431 99.3168C68.0431 79.2817 57.7215 62.8907 44.6619 61.6322V61.4063Z" fill="#7F7F8D"/>
<path fill-rule="evenodd" clip-rule="evenodd" d="M48.6862 47.1072C43.1186 47.1072 38.3169 49.8914 36.115 53.9024C31.0363 55.4937 27.7747 57.9898 27.7747 60.7903C27.7747 61.5617 28.0381 62.3167 28.5035 63.0289C28.1539 63.855 27.9772 64.7157 27.9772 65.5986C27.9772 71.9796 37.6213 77.1491 49.5162 77.1491C61.411 77.1491 71.0552 71.9796 71.0552 65.5986C71.0552 64.583 70.8053 63.5963 70.3466 62.658C70.6695 62.0582 70.8527 61.4292 70.8527 60.7903C70.8527 57.7241 66.9366 55.0284 61.0144 53.4785C58.7154 49.6949 54.0571 47.1072 48.6862 47.1072Z" fill="url(#paint2_linear)" stroke="black" stroke-width="2.68662"/>
<path fill-rule="evenodd" clip-rule="evenodd" d="M56.571 50.9645C56.571 55.2261 53.1655 58.6809 48.9647 58.6809C44.7639 58.6809 41.3585 55.2261 41.3585 50.9645C41.3585 46.7028 44.7639 43.2481 48.9647 43.2481C53.1655 43.2481 56.571 46.7028 56.571 50.9645Z" fill="black"/>
<path fill-rule="evenodd" clip-rule="evenodd" d="M39.732 67.5963H48.3534V80.9239H39.732V67.5963Z" fill="url(#paint3_linear)" stroke="black" stroke-width="3.04519"/>
<path fill-rule="evenodd" clip-rule="evenodd" d="M48.4588 67.3488H57.0802V80.6765H48.4588V67.3488Z" fill="url(#paint4_linear)" stroke="black" stroke-width="3.04519"/>
<path d="M31.579 63.0902C44.104 70.1825 55.817 69.0374 66.8937 61.4367" stroke="black" stroke-width="5.37324"/>
<defs>
<linearGradient id="paint0_linear" x1="4.14731" y1="303.539" x2="15.7907" y2="303.539" gradientUnits="userSpaceOnUse">
<stop stop-color="#F1AAC2"/>
<stop offset="1" stop-color="#E5638F"/>
</linearGradient>
<linearGradient id="paint1_linear" x1="93.9107" y1="303.539" x2="82.2674" y2="303.539" gradientUnits="userSpaceOnUse">
<stop stop-color="#F1AAC2"/>
<stop offset="1" stop-color="#E5638F"/>
</linearGradient>
<linearGradient id="paint2_linear" x1="39.6164" y1="52.7513" x2="56.5327" y2="80.5083" gradientUnits="userSpaceOnUse">
<stop stop-color="#FFCEAE"/>
<stop offset="1" stop-color="#FFB280"/>
</linearGradient>
<linearGradient id="paint3_linear" x1="38.9896" y1="303.539" x2="49.0911" y2="303.539" gradientUnits="userSpaceOnUse">
<stop stop-color="#8A8A8A"/>
<stop offset="0.2857" stop-color="#F1F1F1"/>
<stop offset="1" stop-color="white"/>
</linearGradient>
<linearGradient id="paint4_linear" x1="47.7145" y1="303.539" x2="57.8159" y2="303.539" gradientUnits="userSpaceOnUse">
<stop stop-color="#8A8A8A"/>
<stop offset="0.2857" stop-color="#F1F1F1"/>
<stop offset="1" stop-color="white"/>
</linearGradient>
</defs>
</svg>
